<svg xmlns="http://www.w3.org/2000/svg" xmlns:xlink="http://www.w3.org/1999/xlink" width="500" zoomAndPan="magnify" viewBox="0 0 375 374.999991" height="500" preserveAspectRatio="xMidYMid meet" version="1.0"><defs><g/><clipPath id="a0e733d110"><path d="M 132 146 L 243 146 L 243 218.625 L 132 218.625 Z M 132 146 " clip-rule="nonzero"/></clipPath><clipPath id="b21db6b7b7"><path d="M 112.5 70.875 L 262.5 70.875 L 262.5 150 L 112.5 150 Z M 112.5 70.875 " clip-rule="nonzero"/></clipPath></defs><path fill="#211d1d" d="M 239.09375 111.132812 L 233.835938 111.132812 L 233.835938 77.261719 L 216.308594 77.261719 L 216.308594 88.480469 L 211.050781 88.480469 L 211.050781 71.988281 L 239.09375 71.988281 L 239.09375 111.132812 " fill-opacity="1" fill-rule="nonzero"/><path fill="#211d1d" d="M 224.820312 206.257812 L 219.5625 206.257812 L 219.5625 163.734375 L 197.195312 163.734375 L 197.195312 206.257812 L 191.941406 206.257812 L 191.941406 158.464844 L 224.820312 158.464844 L 224.820312 206.257812 " fill-opacity="1" fill-rule="nonzero"/><g clip-path="url(#a0e733d110)"><path fill="#211d1d" d="M 242.566406 218.632812 L 132.433594 218.632812 L 132.433594 146.527344 L 137.691406 146.527344 L 137.691406 213.363281 L 237.308594 213.363281 L 237.308594 146.527344 L 242.566406 146.527344 L 242.566406 218.632812 " fill-opacity="1" fill-rule="nonzero"/></g><g clip-path="url(#b21db6b7b7)"><path fill="#211d1d" d="M 258.789062 149.507812 L 187.5 78.34375 L 116.207031 149.507812 L 112.5 145.773438 L 187.5 70.90625 L 262.5 145.773438 L 258.789062 149.507812 " fill-opacity="1" fill-rule="nonzero"/></g><path fill="#211d1d" d="M 163.855469 182.40625 L 163.855469 174.714844 L 173.628906 174.714844 L 173.628906 182.40625 Z M 150.144531 174.714844 L 159.914062 174.714844 L 159.914062 182.40625 L 150.144531 182.40625 Z M 159.914062 163.074219 L 159.914062 170.765625 L 150.144531 170.765625 L 150.144531 163.074219 Z M 173.628906 170.765625 L 163.855469 170.765625 L 163.855469 163.074219 L 173.628906 163.074219 Z M 146.203125 159.121094 L 146.203125 186.355469 L 177.574219 186.355469 L 177.574219 159.121094 L 146.203125 159.121094 " fill-opacity="1" fill-rule="nonzero"/><g fill="#cd9b37" fill-opacity="0.4"><g transform="translate(110.965416, 263.927003)"><g><path d="M 17.140625 -5.71875 L 19.40625 -3.28125 C 19.601562 -3.0625 19.601562 -2.851562 19.40625 -2.65625 C 18.5 -1.707031 17.421875 -0.960938 16.171875 -0.421875 C 14.929688 0.117188 13.582031 0.390625 12.125 0.390625 C 10.644531 0.390625 9.253906 0.117188 7.953125 -0.421875 C 6.660156 -0.960938 5.523438 -1.71875 4.546875 -2.6875 C 3.578125 -3.664062 2.816406 -4.800781 2.265625 -6.09375 C 1.722656 -7.382812 1.453125 -8.765625 1.453125 -10.234375 C 1.453125 -11.734375 1.722656 -13.125 2.265625 -14.40625 C 2.816406 -15.695312 3.578125 -16.828125 4.546875 -17.796875 C 5.523438 -18.773438 6.660156 -19.535156 7.953125 -20.078125 C 9.253906 -20.617188 10.644531 -20.890625 12.125 -20.890625 C 13.582031 -20.890625 14.929688 -20.617188 16.171875 -20.078125 C 17.421875 -19.535156 18.5 -18.800781 19.40625 -17.875 C 19.582031 -17.675781 19.582031 -17.46875 19.40625 -17.25 L 17.140625 -14.78125 C 16.960938 -14.5625 16.753906 -14.550781 16.515625 -14.75 C 15.929688 -15.257812 15.273438 -15.660156 14.546875 -15.953125 C 13.816406 -16.253906 13 -16.40625 12.09375 -16.40625 C 10.988281 -16.40625 9.984375 -16.132812 9.078125 -15.59375 C 8.179688 -15.050781 7.472656 -14.316406 6.953125 -13.390625 C 6.429688 -12.460938 6.171875 -11.410156 6.171875 -10.234375 C 6.171875 -9.078125 6.429688 -8.035156 6.953125 -7.109375 C 7.472656 -6.179688 8.179688 -5.445312 9.078125 -4.90625 C 9.984375 -4.363281 10.988281 -4.09375 12.09375 -4.09375 C 13 -4.09375 13.816406 -4.242188 14.546875 -4.546875 C 15.273438 -4.859375 15.929688 -5.257812 16.515625 -5.75 C 16.753906 -5.945312 16.960938 -5.9375 17.140625 -5.71875 Z M 17.140625 -5.71875 "/></g></g></g><g fill="#cd9b37" fill-opacity="0.4"><g transform="translate(131.819136, 263.927003)"><g><path d="M 19.765625 -0.5 C 19.898438 -0.164062 19.78125 0 19.40625 0 L 15.578125 0 C 15.316406 0 15.148438 -0.117188 15.078125 -0.359375 L 14.046875 -3.546875 L 6.75 -3.546875 L 5.71875 -0.359375 C 5.644531 -0.117188 5.476562 0 5.21875 0 L 1.390625 0 C 1.015625 0 0.894531 -0.164062 1.03125 -0.5 L 8.171875 -20.296875 C 8.265625 -20.535156 8.429688 -20.65625 8.671875 -20.65625 L 12.0625 -20.65625 C 12.363281 -20.65625 12.550781 -20.535156 12.625 -20.296875 Z M 8 -7.234375 L 12.828125 -7.234375 L 10.40625 -14.625 Z M 8 -7.234375 "/></g></g></g><g fill="#cd9b37" fill-opacity="0.4"><g transform="translate(152.613862, 263.927003)"><g><path d="M 6.453125 -14.84375 C 6.453125 -14.3125 6.675781 -13.875 7.125 -13.53125 C 7.582031 -13.195312 8.164062 -12.90625 8.875 -12.65625 C 9.582031 -12.414062 10.332031 -12.148438 11.125 -11.859375 C 11.925781 -11.566406 12.679688 -11.179688 13.390625 -10.703125 C 14.097656 -10.234375 14.675781 -9.613281 15.125 -8.84375 C 15.582031 -8.082031 15.8125 -7.101562 15.8125 -5.90625 C 15.8125 -4.863281 15.597656 -3.953125 15.171875 -3.171875 C 14.753906 -2.390625 14.195312 -1.738281 13.5 -1.21875 C 12.800781 -0.695312 12.019531 -0.300781 11.15625 -0.03125 C 10.300781 0.226562 9.4375 0.359375 8.5625 0.359375 C 7.53125 0.359375 6.546875 0.207031 5.609375 -0.09375 C 4.679688 -0.40625 3.859375 -0.8125 3.140625 -1.3125 C 2.421875 -1.8125 1.847656 -2.335938 1.421875 -2.890625 C 1.265625 -3.109375 1.273438 -3.316406 1.453125 -3.515625 L 3.484375 -5.78125 C 3.660156 -6.039062 3.875 -6.0625 4.125 -5.84375 C 4.875 -5.226562 5.609375 -4.757812 6.328125 -4.4375 C 7.046875 -4.113281 7.828125 -3.953125 8.671875 -3.953125 C 9.378906 -3.953125 10 -4.128906 10.53125 -4.484375 C 11.0625 -4.835938 11.328125 -5.335938 11.328125 -5.984375 C 11.328125 -6.515625 11.097656 -6.953125 10.640625 -7.296875 C 10.191406 -7.640625 9.613281 -7.945312 8.90625 -8.21875 C 8.195312 -8.5 7.441406 -8.800781 6.640625 -9.125 C 5.847656 -9.445312 5.097656 -9.84375 4.390625 -10.3125 C 3.679688 -10.789062 3.097656 -11.398438 2.640625 -12.140625 C 2.191406 -12.878906 1.96875 -13.804688 1.96875 -14.921875 C 1.96875 -16.179688 2.28125 -17.253906 2.90625 -18.140625 C 3.539062 -19.023438 4.359375 -19.703125 5.359375 -20.171875 C 6.367188 -20.648438 7.4375 -20.890625 8.5625 -20.890625 C 9.894531 -20.890625 11.085938 -20.632812 12.140625 -20.125 C 13.191406 -19.625 14.140625 -18.960938 14.984375 -18.140625 C 15.203125 -17.960938 15.222656 -17.753906 15.046875 -17.515625 L 13.125 -15.1875 C 12.945312 -14.9375 12.742188 -14.898438 12.515625 -15.078125 C 11.785156 -15.585938 11.140625 -15.960938 10.578125 -16.203125 C 10.015625 -16.453125 9.390625 -16.578125 8.703125 -16.578125 C 7.972656 -16.578125 7.414062 -16.398438 7.03125 -16.046875 C 6.644531 -15.691406 6.453125 -15.289062 6.453125 -14.84375 Z M 6.453125 -14.84375 "/></g></g></g><g fill="#cd9b37" fill-opacity="0.4"><g transform="translate(169.721588, 263.927003)"><g><path d="M 19.765625 -0.5 C 19.898438 -0.164062 19.78125 0 19.40625 0 L 15.578125 0 C 15.316406 0 15.148438 -0.117188 15.078125 -0.359375 L 14.046875 -3.546875 L 6.75 -3.546875 L 5.71875 -0.359375 C 5.644531 -0.117188 5.476562 0 5.21875 0 L 1.390625 0 C 1.015625 0 0.894531 -0.164062 1.03125 -0.5 L 8.171875 -20.296875 C 8.265625 -20.535156 8.429688 -20.65625 8.671875 -20.65625 L 12.0625 -20.65625 C 12.363281 -20.65625 12.550781 -20.535156 12.625 -20.296875 Z M 8 -7.234375 L 12.828125 -7.234375 L 10.40625 -14.625 Z M 8 -7.234375 "/></g></g></g><g fill="#cd9b37" fill-opacity="0.4"><g transform="translate(190.516314, 263.927003)"><g/></g></g><g fill="#cd9b37" fill-opacity="0.4"><g transform="translate(198.775217, 263.927003)"><g><path d="M 31.65625 -20.65625 C 31.988281 -20.65625 32.101562 -20.488281 32 -20.15625 L 25.75 -0.359375 C 25.675781 -0.117188 25.488281 0 25.1875 0 L 21.59375 0 C 21.320312 0 21.15625 -0.117188 21.09375 -0.359375 L 16.640625 -13.78125 L 12.15625 -0.359375 C 12.070312 -0.117188 11.914062 0 11.6875 0 L 8.078125 0 C 7.960938 0 7.847656 -0.0234375 7.734375 -0.078125 C 7.628906 -0.140625 7.554688 -0.234375 7.515625 -0.359375 L 1.328125 -20.15625 C 1.191406 -20.488281 1.3125 -20.65625 1.6875 -20.65625 L 5.515625 -20.65625 C 5.773438 -20.65625 5.941406 -20.535156 6.015625 -20.296875 L 9.9375 -6.078125 L 14.390625 -20.296875 C 14.410156 -20.429688 14.488281 -20.53125 14.625 -20.59375 C 14.707031 -20.632812 14.789062 -20.65625 14.875 -20.65625 L 18.40625 -20.65625 C 18.507812 -20.65625 18.597656 -20.632812 18.671875 -20.59375 C 18.753906 -20.53125 18.820312 -20.429688 18.875 -20.296875 L 23.328125 -6.078125 L 27.28125 -20.296875 C 27.34375 -20.535156 27.507812 -20.65625 27.78125 -20.65625 Z M 31.65625 -20.65625 "/></g></g></g><g fill="#cd9b37" fill-opacity="0.4"><g transform="translate(232.105777, 263.927003)"><g><path d="M 13.5625 -4.046875 C 13.863281 -4.046875 14.015625 -3.894531 14.015625 -3.59375 L 14.015625 -0.4375 C 14.015625 -0.144531 13.863281 0 13.5625 0 L 2.484375 0 C 2.179688 0 2.03125 -0.144531 2.03125 -0.4375 L 2.03125 -20.203125 C 2.03125 -20.503906 2.179688 -20.65625 2.484375 -20.65625 L 13.546875 -20.65625 C 13.835938 -20.65625 13.984375 -20.503906 13.984375 -20.203125 L 13.984375 -17.046875 C 13.984375 -16.753906 13.835938 -16.609375 13.546875 -16.609375 L 6.609375 -16.609375 L 6.609375 -12.5625 L 13.125 -12.5625 C 13.414062 -12.5625 13.5625 -12.414062 13.5625 -12.125 L 13.5625 -8.96875 C 13.5625 -8.675781 13.414062 -8.53125 13.125 -8.53125 L 6.609375 -8.53125 L 6.609375 -4.046875 Z M 13.5625 -4.046875 "/></g></g></g><g fill="#cd9b37" fill-opacity="0.4"><g transform="translate(248.033651, 263.927003)"><g><path d="M 13.390625 -11.03125 C 14.054688 -10.851562 14.695312 -10.535156 15.3125 -10.078125 C 15.9375 -9.628906 16.445312 -9.054688 16.84375 -8.359375 C 17.238281 -7.660156 17.4375 -6.859375 17.4375 -5.953125 C 17.4375 -3.992188 16.8125 -2.507812 15.5625 -1.5 C 14.3125 -0.5 12.367188 0 9.734375 0 L 2.484375 0 C 2.179688 0 2.03125 -0.144531 2.03125 -0.4375 L 2.03125 -20.203125 C 2.03125 -20.503906 2.179688 -20.65625 2.484375 -20.65625 L 9.703125 -20.65625 C 11.054688 -20.65625 12.191406 -20.410156 13.109375 -19.921875 C 14.023438 -19.441406 14.71875 -18.796875 15.1875 -17.984375 C 15.664062 -17.179688 15.90625 -16.289062 15.90625 -15.3125 C 15.90625 -14.226562 15.648438 -13.3125 15.140625 -12.5625 C 14.640625 -11.820312 14.054688 -11.3125 13.390625 -11.03125 Z M 11.625 -14.71875 C 11.625 -15.425781 11.40625 -15.914062 10.96875 -16.1875 C 10.539062 -16.46875 9.984375 -16.609375 9.296875 -16.609375 L 6.609375 -16.609375 L 6.609375 -12.65625 L 9.296875 -12.65625 C 9.984375 -12.65625 10.539062 -12.816406 10.96875 -13.140625 C 11.40625 -13.460938 11.625 -13.988281 11.625 -14.71875 Z M 9.90625 -4.046875 C 10.789062 -4.046875 11.503906 -4.242188 12.046875 -4.640625 C 12.585938 -5.046875 12.859375 -5.671875 12.859375 -6.515625 C 12.859375 -7.378906 12.582031 -7.988281 12.03125 -8.34375 C 11.476562 -8.695312 10.769531 -8.875 9.90625 -8.875 L 6.609375 -8.875 L 6.609375 -4.046875 Z M 9.90625 -4.046875 "/></g></g></g><g fill="#cd9b37" fill-opacity="1"><g transform="translate(109.661685, 262.623278)"><g><path d="M 17.140625 -5.71875 L 19.40625 -3.28125 C 19.601562 -3.0625 19.601562 -2.851562 19.40625 -2.65625 C 18.5 -1.707031 17.421875 -0.960938 16.171875 -0.421875 C 14.929688 0.117188 13.582031 0.390625 12.125 0.390625 C 10.644531 0.390625 9.253906 0.117188 7.953125 -0.421875 C 6.660156 -0.960938 5.523438 -1.71875 4.546875 -2.6875 C 3.578125 -3.664062 2.816406 -4.800781 2.265625 -6.09375 C 1.722656 -7.382812 1.453125 -8.765625 1.453125 -10.234375 C 1.453125 -11.734375 1.722656 -13.125 2.265625 -14.40625 C 2.816406 -15.695312 3.578125 -16.828125 4.546875 -17.796875 C 5.523438 -18.773438 6.660156 -19.535156 7.953125 -20.078125 C 9.253906 -20.617188 10.644531 -20.890625 12.125 -20.890625 C 13.582031 -20.890625 14.929688 -20.617188 16.171875 -20.078125 C 17.421875 -19.535156 18.5 -18.800781 19.40625 -17.875 C 19.582031 -17.675781 19.582031 -17.46875 19.40625 -17.25 L 17.140625 -14.78125 C 16.960938 -14.5625 16.753906 -14.550781 16.515625 -14.75 C 15.929688 -15.257812 15.273438 -15.660156 14.546875 -15.953125 C 13.816406 -16.253906 13 -16.40625 12.09375 -16.40625 C 10.988281 -16.40625 9.984375 -16.132812 9.078125 -15.59375 C 8.179688 -15.050781 7.472656 -14.316406 6.953125 -13.390625 C 6.429688 -12.460938 6.171875 -11.410156 6.171875 -10.234375 C 6.171875 -9.078125 6.429688 -8.035156 6.953125 -7.109375 C 7.472656 -6.179688 8.179688 -5.445312 9.078125 -4.90625 C 9.984375 -4.363281 10.988281 -4.09375 12.09375 -4.09375 C 13 -4.09375 13.816406 -4.242188 14.546875 -4.546875 C 15.273438 -4.859375 15.929688 -5.257812 16.515625 -5.75 C 16.753906 -5.945312 16.960938 -5.9375 17.140625 -5.71875 Z M 17.140625 -5.71875 "/></g></g></g><g fill="#cd9b37" fill-opacity="1"><g transform="translate(130.515405, 262.623278)"><g><path d="M 19.765625 -0.5 C 19.898438 -0.164062 19.78125 0 19.40625 0 L 15.578125 0 C 15.316406 0 15.148438 -0.117188 15.078125 -0.359375 L 14.046875 -3.546875 L 6.75 -3.546875 L 5.71875 -0.359375 C 5.644531 -0.117188 5.476562 0 5.21875 0 L 1.390625 0 C 1.015625 0 0.894531 -0.164062 1.03125 -0.5 L 8.171875 -20.296875 C 8.265625 -20.535156 8.429688 -20.65625 8.671875 -20.65625 L 12.0625 -20.65625 C 12.363281 -20.65625 12.550781 -20.535156 12.625 -20.296875 Z M 8 -7.234375 L 12.828125 -7.234375 L 10.40625 -14.625 Z M 8 -7.234375 "/></g></g></g><g fill="#cd9b37" fill-opacity="1"><g transform="translate(151.310131, 262.623278)"><g><path d="M 6.453125 -14.84375 C 6.453125 -14.3125 6.675781 -13.875 7.125 -13.53125 C 7.582031 -13.195312 8.164062 -12.90625 8.875 -12.65625 C 9.582031 -12.414062 10.332031 -12.148438 11.125 -11.859375 C 11.925781 -11.566406 12.679688 -11.179688 13.390625 -10.703125 C 14.097656 -10.234375 14.675781 -9.613281 15.125 -8.84375 C 15.582031 -8.082031 15.8125 -7.101562 15.8125 -5.90625 C 15.8125 -4.863281 15.597656 -3.953125 15.171875 -3.171875 C 14.753906 -2.390625 14.195312 -1.738281 13.5 -1.21875 C 12.800781 -0.695312 12.019531 -0.300781 11.15625 -0.03125 C 10.300781 0.226562 9.4375 0.359375 8.5625 0.359375 C 7.53125 0.359375 6.546875 0.207031 5.609375 -0.09375 C 4.679688 -0.40625 3.859375 -0.8125 3.140625 -1.3125 C 2.421875 -1.8125 1.847656 -2.335938 1.421875 -2.890625 C 1.265625 -3.109375 1.273438 -3.316406 1.453125 -3.515625 L 3.484375 -5.78125 C 3.660156 -6.039062 3.875 -6.0625 4.125 -5.84375 C 4.875 -5.226562 5.609375 -4.757812 6.328125 -4.4375 C 7.046875 -4.113281 7.828125 -3.953125 8.671875 -3.953125 C 9.378906 -3.953125 10 -4.128906 10.53125 -4.484375 C 11.0625 -4.835938 11.328125 -5.335938 11.328125 -5.984375 C 11.328125 -6.515625 11.097656 -6.953125 10.640625 -7.296875 C 10.191406 -7.640625 9.613281 -7.945312 8.90625 -8.21875 C 8.195312 -8.5 7.441406 -8.800781 6.640625 -9.125 C 5.847656 -9.445312 5.097656 -9.84375 4.390625 -10.3125 C 3.679688 -10.789062 3.097656 -11.398438 2.640625 -12.140625 C 2.191406 -12.878906 1.96875 -13.804688 1.96875 -14.921875 C 1.96875 -16.179688 2.28125 -17.253906 2.90625 -18.140625 C 3.539062 -19.023438 4.359375 -19.703125 5.359375 -20.171875 C 6.367188 -20.648438 7.4375 -20.890625 8.5625 -20.890625 C 9.894531 -20.890625 11.085938 -20.632812 12.140625 -20.125 C 13.191406 -19.625 14.140625 -18.960938 14.984375 -18.140625 C 15.203125 -17.960938 15.222656 -17.753906 15.046875 -17.515625 L 13.125 -15.1875 C 12.945312 -14.9375 12.742188 -14.898438 12.515625 -15.078125 C 11.785156 -15.585938 11.140625 -15.960938 10.578125 -16.203125 C 10.015625 -16.453125 9.390625 -16.578125 8.703125 -16.578125 C 7.972656 -16.578125 7.414062 -16.398438 7.03125 -16.046875 C 6.644531 -15.691406 6.453125 -15.289062 6.453125 -14.84375 Z M 6.453125 -14.84375 "/></g></g></g><g fill="#cd9b37" fill-opacity="1"><g transform="translate(168.417857, 262.623278)"><g><path d="M 19.765625 -0.5 C 19.898438 -0.164062 19.78125 0 19.40625 0 L 15.578125 0 C 15.316406 0 15.148438 -0.117188 15.078125 -0.359375 L 14.046875 -3.546875 L 6.75 -3.546875 L 5.71875 -0.359375 C 5.644531 -0.117188 5.476562 0 5.21875 0 L 1.390625 0 C 1.015625 0 0.894531 -0.164062 1.03125 -0.5 L 8.171875 -20.296875 C 8.265625 -20.535156 8.429688 -20.65625 8.671875 -20.65625 L 12.0625 -20.65625 C 12.363281 -20.65625 12.550781 -20.535156 12.625 -20.296875 Z M 8 -7.234375 L 12.828125 -7.234375 L 10.40625 -14.625 Z M 8 -7.234375 "/></g></g></g><g fill="#cd9b37" fill-opacity="1"><g transform="translate(189.212583, 262.623278)"><g/></g></g><g fill="#cd9b37" fill-opacity="1"><g transform="translate(197.471486, 262.623278)"><g><path d="M 31.65625 -20.65625 C 31.988281 -20.65625 32.101562 -20.488281 32 -20.15625 L 25.75 -0.359375 C 25.675781 -0.117188 25.488281 0 25.1875 0 L 21.59375 0 C 21.320312 0 21.15625 -0.117188 21.09375 -0.359375 L 16.640625 -13.78125 L 12.15625 -0.359375 C 12.070312 -0.117188 11.914062 0 11.6875 0 L 8.078125 0 C 7.960938 0 7.847656 -0.0234375 7.734375 -0.078125 C 7.628906 -0.140625 7.554688 -0.234375 7.515625 -0.359375 L 1.328125 -20.15625 C 1.191406 -20.488281 1.3125 -20.65625 1.6875 -20.65625 L 5.515625 -20.65625 C 5.773438 -20.65625 5.941406 -20.535156 6.015625 -20.296875 L 9.9375 -6.078125 L 14.390625 -20.296875 C 14.410156 -20.429688 14.488281 -20.53125 14.625 -20.59375 C 14.707031 -20.632812 14.789062 -20.65625 14.875 -20.65625 L 18.40625 -20.65625 C 18.507812 -20.65625 18.597656 -20.632812 18.671875 -20.59375 C 18.753906 -20.53125 18.820312 -20.429688 18.875 -20.296875 L 23.328125 -6.078125 L 27.28125 -20.296875 C 27.34375 -20.535156 27.507812 -20.65625 27.78125 -20.65625 Z M 31.65625 -20.65625 "/></g></g></g><g fill="#cd9b37" fill-opacity="1"><g transform="translate(230.802046, 262.623278)"><g><path d="M 13.5625 -4.046875 C 13.863281 -4.046875 14.015625 -3.894531 14.015625 -3.59375 L 14.015625 -0.4375 C 14.015625 -0.144531 13.863281 0 13.5625 0 L 2.484375 0 C 2.179688 0 2.03125 -0.144531 2.03125 -0.4375 L 2.03125 -20.203125 C 2.03125 -20.503906 2.179688 -20.65625 2.484375 -20.65625 L 13.546875 -20.65625 C 13.835938 -20.65625 13.984375 -20.503906 13.984375 -20.203125 L 13.984375 -17.046875 C 13.984375 -16.753906 13.835938 -16.609375 13.546875 -16.609375 L 6.609375 -16.609375 L 6.609375 -12.5625 L 13.125 -12.5625 C 13.414062 -12.5625 13.5625 -12.414062 13.5625 -12.125 L 13.5625 -8.96875 C 13.5625 -8.675781 13.414062 -8.53125 13.125 -8.53125 L 6.609375 -8.53125 L 6.609375 -4.046875 Z M 13.5625 -4.046875 "/></g></g></g><g fill="#cd9b37" fill-opacity="1"><g transform="translate(246.72992, 262.623278)"><g><path d="M 13.390625 -11.03125 C 14.054688 -10.851562 14.695312 -10.535156 15.3125 -10.078125 C 15.9375 -9.628906 16.445312 -9.054688 16.84375 -8.359375 C 17.238281 -7.660156 17.4375 -6.859375 17.4375 -5.953125 C 17.4375 -3.992188 16.8125 -2.507812 15.5625 -1.5 C 14.3125 -0.5 12.367188 0 9.734375 0 L 2.484375 0 C 2.179688 0 2.03125 -0.144531 2.03125 -0.4375 L 2.03125 -20.203125 C 2.03125 -20.503906 2.179688 -20.65625 2.484375 -20.65625 L 9.703125 -20.65625 C 11.054688 -20.65625 12.191406 -20.410156 13.109375 -19.921875 C 14.023438 -19.441406 14.71875 -18.796875 15.1875 -17.984375 C 15.664062 -17.179688 15.90625 -16.289062 15.90625 -15.3125 C 15.90625 -14.226562 15.648438 -13.3125 15.140625 -12.5625 C 14.640625 -11.820312 14.054688 -11.3125 13.390625 -11.03125 Z M 11.625 -14.71875 C 11.625 -15.425781 11.40625 -15.914062 10.96875 -16.1875 C 10.539062 -16.46875 9.984375 -16.609375 9.296875 -16.609375 L 6.609375 -16.609375 L 6.609375 -12.65625 L 9.296875 -12.65625 C 9.984375 -12.65625 10.539062 -12.816406 10.96875 -13.140625 C 11.40625 -13.460938 11.625 -13.988281 11.625 -14.71875 Z M 9.90625 -4.046875 C 10.789062 -4.046875 11.503906 -4.242188 12.046875 -4.640625 C 12.585938 -5.046875 12.859375 -5.671875 12.859375 -6.515625 C 12.859375 -7.378906 12.582031 -7.988281 12.03125 -8.34375 C 11.476562 -8.695312 10.769531 -8.875 9.90625 -8.875 L 6.609375 -8.875 L 6.609375 -4.046875 Z M 9.90625 -4.046875 "/></g></g></g><g fill="#1e2c36" fill-opacity="1"><g transform="translate(62.894408, 293.78207)"><g><path d="M 3.5625 -10.5 C 4.789062 -10.5 5.8125 -10.269531 6.625 -9.8125 C 7.4375 -9.351562 8.046875 -8.726562 8.453125 -7.9375 C 8.859375 -7.144531 9.0625 -6.25 9.0625 -5.25 C 9.0625 -4.257812 8.859375 -3.363281 8.453125 -2.5625 C 8.046875 -1.769531 7.4375 -1.144531 6.625 -0.6875 C 5.8125 -0.226562 4.789062 0 3.5625 0 L 1.359375 0 C 1.210938 0 1.140625 -0.0703125 1.140625 -0.21875 L 1.140625 -10.28125 C 1.140625 -10.425781 1.210938 -10.5 1.359375 -10.5 Z M 3.5625 -0.890625 C 5.082031 -0.890625 6.21875 -1.28125 6.96875 -2.0625 C 7.71875 -2.84375 8.09375 -3.90625 8.09375 -5.25 C 8.09375 -6.59375 7.71875 -7.65625 6.96875 -8.4375 C 6.21875 -9.21875 5.082031 -9.609375 3.5625 -9.609375 L 2.078125 -9.609375 L 2.078125 -0.890625 Z M 3.5625 -0.890625 "/></g></g></g><g fill="#1e2c36" fill-opacity="1"><g transform="translate(73.874395, 293.78207)"><g><path d="M 6.453125 -0.890625 C 6.597656 -0.890625 6.671875 -0.8125 6.671875 -0.65625 L 6.671875 -0.21875 C 6.671875 -0.0703125 6.597656 0 6.453125 0 L 1.359375 0 C 1.210938 0 1.140625 -0.0703125 1.140625 -0.21875 L 1.140625 -10.28125 C 1.140625 -10.425781 1.210938 -10.5 1.359375 -10.5 L 6.4375 -10.5 C 6.582031 -10.5 6.65625 -10.425781 6.65625 -10.28125 L 6.65625 -9.84375 C 6.65625 -9.6875 6.582031 -9.609375 6.4375 -9.609375 L 2.078125 -9.609375 L 2.078125 -6.046875 L 6.1875 -6.046875 C 6.332031 -6.046875 6.40625 -5.96875 6.40625 -5.8125 L 6.40625 -5.390625 C 6.40625 -5.234375 6.332031 -5.15625 6.1875 -5.15625 L 2.078125 -5.15625 L 2.078125 -0.890625 Z M 6.453125 -0.890625 "/></g></g></g><g fill="#1e2c36" fill-opacity="1"><g transform="translate(82.679387, 293.78207)"><g><path d="M 1.890625 -8.015625 C 1.890625 -7.628906 1.988281 -7.304688 2.1875 -7.046875 C 2.382812 -6.796875 2.644531 -6.582031 2.96875 -6.40625 C 3.300781 -6.226562 3.664062 -6.0625 4.0625 -5.90625 C 4.457031 -5.75 4.847656 -5.582031 5.234375 -5.40625 C 5.617188 -5.238281 5.972656 -5.035156 6.296875 -4.796875 C 6.628906 -4.566406 6.894531 -4.28125 7.09375 -3.9375 C 7.289062 -3.59375 7.390625 -3.164062 7.390625 -2.65625 C 7.390625 -2.15625 7.242188 -1.6875 6.953125 -1.25 C 6.660156 -0.8125 6.257812 -0.460938 5.75 -0.203125 C 5.25 0.0546875 4.675781 0.1875 4.03125 0.1875 C 3.3125 0.1875 2.664062 0.046875 2.09375 -0.234375 C 1.53125 -0.523438 1.101562 -0.910156 0.8125 -1.390625 C 0.738281 -1.515625 0.757812 -1.613281 0.875 -1.6875 L 1.1875 -1.96875 C 1.289062 -2.050781 1.390625 -2.039062 1.484375 -1.9375 C 1.796875 -1.625 2.148438 -1.332031 2.546875 -1.0625 C 2.953125 -0.800781 3.4375 -0.671875 4 -0.671875 C 4.5 -0.671875 4.929688 -0.765625 5.296875 -0.953125 C 5.671875 -1.148438 5.957031 -1.398438 6.15625 -1.703125 C 6.363281 -2.015625 6.46875 -2.359375 6.46875 -2.734375 C 6.46875 -3.117188 6.367188 -3.441406 6.171875 -3.703125 C 5.972656 -3.960938 5.710938 -4.1875 5.390625 -4.375 C 5.066406 -4.570312 4.707031 -4.742188 4.3125 -4.890625 C 3.925781 -5.046875 3.535156 -5.207031 3.140625 -5.375 C 2.753906 -5.539062 2.398438 -5.738281 2.078125 -5.96875 C 1.753906 -6.195312 1.492188 -6.476562 1.296875 -6.8125 C 1.097656 -7.144531 1 -7.550781 1 -8.03125 C 1 -8.519531 1.125 -8.957031 1.375 -9.34375 C 1.632812 -9.738281 1.988281 -10.050781 2.4375 -10.28125 C 2.894531 -10.507812 3.40625 -10.625 3.96875 -10.625 C 4.507812 -10.625 5.039062 -10.5 5.5625 -10.25 C 6.09375 -10 6.535156 -9.648438 6.890625 -9.203125 C 6.972656 -9.109375 6.960938 -9.003906 6.859375 -8.890625 L 6.59375 -8.671875 C 6.488281 -8.554688 6.382812 -8.550781 6.28125 -8.65625 C 5.957031 -9.007812 5.609375 -9.285156 5.234375 -9.484375 C 4.867188 -9.679688 4.441406 -9.78125 3.953125 -9.78125 C 3.390625 -9.78125 2.90625 -9.628906 2.5 -9.328125 C 2.09375 -9.023438 1.890625 -8.585938 1.890625 -8.015625 Z M 1.890625 -8.015625 "/></g></g></g><g fill="#1e2c36" fill-opacity="1"><g transform="translate(91.994374, 293.78207)"><g><path d="M 9.140625 -0.25 C 9.203125 -0.0820312 9.140625 0 8.953125 0 L 8.46875 0 C 8.34375 0 8.257812 -0.0625 8.21875 -0.1875 L 7.3125 -2.65625 L 2.4375 -2.65625 L 1.546875 -0.1875 C 1.503906 -0.0625 1.421875 0 1.296875 0 L 0.8125 0 C 0.625 0 0.5625 -0.0820312 0.625 -0.25 L 4.328125 -10.3125 C 4.378906 -10.4375 4.472656 -10.5 4.609375 -10.5 L 5.15625 -10.5 C 5.300781 -10.5 5.394531 -10.4375 5.4375 -10.3125 Z M 2.71875 -3.421875 L 7.046875 -3.421875 L 4.890625 -9.40625 Z M 2.71875 -3.421875 "/></g></g></g><g fill="#1e2c36" fill-opacity="1"><g transform="translate(102.91436, 293.78207)"><g><path d="M 7.5625 -0.265625 C 7.613281 -0.191406 7.625 -0.128906 7.59375 -0.078125 C 7.5625 -0.0234375 7.5 0 7.40625 0 L 6.859375 0 C 6.734375 0 6.640625 -0.0507812 6.578125 -0.15625 L 3.9375 -4.078125 L 2.078125 -4.078125 L 2.078125 -0.21875 C 2.078125 -0.0703125 2.003906 0 1.859375 0 L 1.359375 0 C 1.210938 0 1.140625 -0.0703125 1.140625 -0.21875 L 1.140625 -10.28125 C 1.140625 -10.425781 1.210938 -10.5 1.359375 -10.5 L 4.109375 -10.5 C 4.859375 -10.5 5.488281 -10.359375 6 -10.078125 C 6.507812 -9.796875 6.894531 -9.410156 7.15625 -8.921875 C 7.414062 -8.441406 7.546875 -7.898438 7.546875 -7.296875 C 7.546875 -6.503906 7.316406 -5.816406 6.859375 -5.234375 C 6.410156 -4.648438 5.757812 -4.285156 4.90625 -4.140625 Z M 2.078125 -9.609375 L 2.078125 -4.96875 L 4.046875 -4.96875 C 4.535156 -4.96875 4.972656 -5.046875 5.359375 -5.203125 C 5.742188 -5.359375 6.050781 -5.609375 6.28125 -5.953125 C 6.507812 -6.296875 6.625 -6.742188 6.625 -7.296875 C 6.625 -7.847656 6.507812 -8.296875 6.28125 -8.640625 C 6.050781 -8.984375 5.742188 -9.226562 5.359375 -9.375 C 4.972656 -9.53125 4.535156 -9.609375 4.046875 -9.609375 Z M 2.078125 -9.609375 "/></g></g></g><g fill="#1e2c36" fill-opacity="1"><g transform="translate(112.51435, 293.78207)"><g><path d="M 7.5625 -0.265625 C 7.613281 -0.191406 7.625 -0.128906 7.59375 -0.078125 C 7.5625 -0.0234375 7.5 0 7.40625 0 L 6.859375 0 C 6.734375 0 6.640625 -0.0507812 6.578125 -0.15625 L 3.9375 -4.078125 L 2.078125 -4.078125 L 2.078125 -0.21875 C 2.078125 -0.0703125 2.003906 0 1.859375 0 L 1.359375 0 C 1.210938 0 1.140625 -0.0703125 1.140625 -0.21875 L 1.140625 -10.28125 C 1.140625 -10.425781 1.210938 -10.5 1.359375 -10.5 L 4.109375 -10.5 C 4.859375 -10.5 5.488281 -10.359375 6 -10.078125 C 6.507812 -9.796875 6.894531 -9.410156 7.15625 -8.921875 C 7.414062 -8.441406 7.546875 -7.898438 7.546875 -7.296875 C 7.546875 -6.503906 7.316406 -5.816406 6.859375 -5.234375 C 6.410156 -4.648438 5.757812 -4.285156 4.90625 -4.140625 Z M 2.078125 -9.609375 L 2.078125 -4.96875 L 4.046875 -4.96875 C 4.535156 -4.96875 4.972656 -5.046875 5.359375 -5.203125 C 5.742188 -5.359375 6.050781 -5.609375 6.28125 -5.953125 C 6.507812 -6.296875 6.625 -6.742188 6.625 -7.296875 C 6.625 -7.847656 6.507812 -8.296875 6.28125 -8.640625 C 6.050781 -8.984375 5.742188 -9.226562 5.359375 -9.375 C 4.972656 -9.53125 4.535156 -9.609375 4.046875 -9.609375 Z M 2.078125 -9.609375 "/></g></g></g><g fill="#1e2c36" fill-opacity="1"><g transform="translate(122.11434, 293.78207)"><g><path d="M 6.203125 0.1875 C 5.460938 0.1875 4.769531 0.0507812 4.125 -0.21875 C 3.476562 -0.5 2.910156 -0.882812 2.421875 -1.375 C 1.929688 -1.863281 1.546875 -2.4375 1.265625 -3.09375 C 0.984375 -3.75 0.84375 -4.453125 0.84375 -5.203125 C 0.84375 -5.953125 0.984375 -6.65625 1.265625 -7.3125 C 1.546875 -7.96875 1.929688 -8.539062 2.421875 -9.03125 C 2.910156 -9.53125 3.476562 -9.921875 4.125 -10.203125 C 4.769531 -10.484375 5.460938 -10.625 6.203125 -10.625 C 6.941406 -10.625 7.632812 -10.484375 8.28125 -10.203125 C 8.925781 -9.921875 9.492188 -9.53125 9.984375 -9.03125 C 10.472656 -8.539062 10.851562 -7.96875 11.125 -7.3125 C 11.40625 -6.65625 11.546875 -5.953125 11.546875 -5.203125 C 11.546875 -4.453125 11.40625 -3.75 11.125 -3.09375 C 10.851562 -2.4375 10.472656 -1.863281 9.984375 -1.375 C 9.492188 -0.882812 8.925781 -0.5 8.28125 -0.21875 C 7.632812 0.0507812 6.941406 0.1875 6.203125 0.1875 Z M 6.203125 -0.71875 C 6.828125 -0.71875 7.40625 -0.832031 7.9375 -1.0625 C 8.476562 -1.289062 8.945312 -1.609375 9.34375 -2.015625 C 9.738281 -2.421875 10.050781 -2.894531 10.28125 -3.4375 C 10.507812 -3.988281 10.625 -4.578125 10.625 -5.203125 C 10.625 -5.847656 10.507812 -6.441406 10.28125 -6.984375 C 10.050781 -7.523438 9.738281 -8 9.34375 -8.40625 C 8.945312 -8.820312 8.476562 -9.140625 7.9375 -9.359375 C 7.40625 -9.585938 6.828125 -9.703125 6.203125 -9.703125 C 5.378906 -9.703125 4.628906 -9.503906 3.953125 -9.109375 C 3.273438 -8.710938 2.738281 -8.175781 2.34375 -7.5 C 1.957031 -6.820312 1.765625 -6.054688 1.765625 -5.203125 C 1.765625 -4.578125 1.875 -3.988281 2.09375 -3.4375 C 2.320312 -2.894531 2.640625 -2.421875 3.046875 -2.015625 C 3.453125 -1.609375 3.921875 -1.289062 4.453125 -1.0625 C 4.992188 -0.832031 5.578125 -0.71875 6.203125 -0.71875 Z M 6.203125 -0.71875 "/></g></g></g><g fill="#1e2c36" fill-opacity="1"><g transform="translate(135.659326, 293.78207)"><g><path d="M 6.15625 -0.890625 C 6.300781 -0.890625 6.375 -0.8125 6.375 -0.65625 L 6.375 -0.21875 C 6.375 -0.0703125 6.300781 0 6.15625 0 L 1.359375 0 C 1.210938 0 1.140625 -0.0703125 1.140625 -0.21875 L 1.140625 -10.28125 C 1.140625 -10.425781 1.210938 -10.5 1.359375 -10.5 L 1.859375 -10.5 C 2.003906 -10.5 2.078125 -10.425781 2.078125 -10.28125 L 2.078125 -0.890625 Z M 6.15625 -0.890625 "/></g></g></g><g fill="#1e2c36" fill-opacity="1"><g transform="translate(144.029317, 293.78207)"><g><path d="M 6.15625 -0.890625 C 6.300781 -0.890625 6.375 -0.8125 6.375 -0.65625 L 6.375 -0.21875 C 6.375 -0.0703125 6.300781 0 6.15625 0 L 1.359375 0 C 1.210938 0 1.140625 -0.0703125 1.140625 -0.21875 L 1.140625 -10.28125 C 1.140625 -10.425781 1.210938 -10.5 1.359375 -10.5 L 1.859375 -10.5 C 2.003906 -10.5 2.078125 -10.425781 2.078125 -10.28125 L 2.078125 -0.890625 Z M 6.15625 -0.890625 "/></g></g></g><g fill="#1e2c36" fill-opacity="1"><g transform="translate(152.399307, 293.78207)"><g><path d="M 6.203125 0.1875 C 5.460938 0.1875 4.769531 0.0507812 4.125 -0.21875 C 3.476562 -0.5 2.910156 -0.882812 2.421875 -1.375 C 1.929688 -1.863281 1.546875 -2.4375 1.265625 -3.09375 C 0.984375 -3.75 0.84375 -4.453125 0.84375 -5.203125 C 0.84375 -5.953125 0.984375 -6.65625 1.265625 -7.3125 C 1.546875 -7.96875 1.929688 -8.539062 2.421875 -9.03125 C 2.910156 -9.53125 3.476562 -9.921875 4.125 -10.203125 C 4.769531 -10.484375 5.460938 -10.625 6.203125 -10.625 C 6.941406 -10.625 7.632812 -10.484375 8.28125 -10.203125 C 8.925781 -9.921875 9.492188 -9.53125 9.984375 -9.03125 C 10.472656 -8.539062 10.851562 -7.96875 11.125 -7.3125 C 11.40625 -6.65625 11.546875 -5.953125 11.546875 -5.203125 C 11.546875 -4.453125 11.40625 -3.75 11.125 -3.09375 C 10.851562 -2.4375 10.472656 -1.863281 9.984375 -1.375 C 9.492188 -0.882812 8.925781 -0.5 8.28125 -0.21875 C 7.632812 0.0507812 6.941406 0.1875 6.203125 0.1875 Z M 6.203125 -0.71875 C 6.828125 -0.71875 7.40625 -0.832031 7.9375 -1.0625 C 8.476562 -1.289062 8.945312 -1.609375 9.34375 -2.015625 C 9.738281 -2.421875 10.050781 -2.894531 10.28125 -3.4375 C 10.507812 -3.988281 10.625 -4.578125 10.625 -5.203125 C 10.625 -5.847656 10.507812 -6.441406 10.28125 -6.984375 C 10.050781 -7.523438 9.738281 -8 9.34375 -8.40625 C 8.945312 -8.820312 8.476562 -9.140625 7.9375 -9.359375 C 7.40625 -9.585938 6.828125 -9.703125 6.203125 -9.703125 C 5.378906 -9.703125 4.628906 -9.503906 3.953125 -9.109375 C 3.273438 -8.710938 2.738281 -8.175781 2.34375 -7.5 C 1.957031 -6.820312 1.765625 -6.054688 1.765625 -5.203125 C 1.765625 -4.578125 1.875 -3.988281 2.09375 -3.4375 C 2.320312 -2.894531 2.640625 -2.421875 3.046875 -2.015625 C 3.453125 -1.609375 3.921875 -1.289062 4.453125 -1.0625 C 4.992188 -0.832031 5.578125 -0.71875 6.203125 -0.71875 Z M 6.203125 -0.71875 "/></g></g></g><g fill="#1e2c36" fill-opacity="1"><g transform="translate(165.944293, 293.78207)"><g/></g></g><g fill="#1e2c36" fill-opacity="1"><g transform="translate(171.299281, 293.78207)"><g><path d="M 3.5625 -10.5 C 4.789062 -10.5 5.8125 -10.269531 6.625 -9.8125 C 7.4375 -9.351562 8.046875 -8.726562 8.453125 -7.9375 C 8.859375 -7.144531 9.0625 -6.25 9.0625 -5.25 C 9.0625 -4.257812 8.859375 -3.363281 8.453125 -2.5625 C 8.046875 -1.769531 7.4375 -1.144531 6.625 -0.6875 C 5.8125 -0.226562 4.789062 0 3.5625 0 L 1.359375 0 C 1.210938 0 1.140625 -0.0703125 1.140625 -0.21875 L 1.140625 -10.28125 C 1.140625 -10.425781 1.210938 -10.5 1.359375 -10.5 Z M 3.5625 -0.890625 C 5.082031 -0.890625 6.21875 -1.28125 6.96875 -2.0625 C 7.71875 -2.84375 8.09375 -3.90625 8.09375 -5.25 C 8.09375 -6.59375 7.71875 -7.65625 6.96875 -8.4375 C 6.21875 -9.21875 5.082031 -9.609375 3.5625 -9.609375 L 2.078125 -9.609375 L 2.078125 -0.890625 Z M 3.5625 -0.890625 "/></g></g></g><g fill="#1e2c36" fill-opacity="1"><g transform="translate(182.279268, 293.78207)"><g><path d="M 6.453125 -0.890625 C 6.597656 -0.890625 6.671875 -0.8125 6.671875 -0.65625 L 6.671875 -0.21875 C 6.671875 -0.0703125 6.597656 0 6.453125 0 L 1.359375 0 C 1.210938 0 1.140625 -0.0703125 1.140625 -0.21875 L 1.140625 -10.28125 C 1.140625 -10.425781 1.210938 -10.5 1.359375 -10.5 L 6.4375 -10.5 C 6.582031 -10.5 6.65625 -10.425781 6.65625 -10.28125 L 6.65625 -9.84375 C 6.65625 -9.6875 6.582031 -9.609375 6.4375 -9.609375 L 2.078125 -9.609375 L 2.078125 -6.046875 L 6.1875 -6.046875 C 6.332031 -6.046875 6.40625 -5.96875 6.40625 -5.8125 L 6.40625 -5.390625 C 6.40625 -5.234375 6.332031 -5.15625 6.1875 -5.15625 L 2.078125 -5.15625 L 2.078125 -0.890625 Z M 6.453125 -0.890625 "/></g></g></g><g fill="#1e2c36" fill-opacity="1"><g transform="translate(191.08426, 293.78207)"><g/></g></g><g fill="#1e2c36" fill-opacity="1"><g transform="translate(196.439248, 293.78207)"><g><path d="M 1.890625 -8.015625 C 1.890625 -7.628906 1.988281 -7.304688 2.1875 -7.046875 C 2.382812 -6.796875 2.644531 -6.582031 2.96875 -6.40625 C 3.300781 -6.226562 3.664062 -6.0625 4.0625 -5.90625 C 4.457031 -5.75 4.847656 -5.582031 5.234375 -5.40625 C 5.617188 -5.238281 5.972656 -5.035156 6.296875 -4.796875 C 6.628906 -4.566406 6.894531 -4.28125 7.09375 -3.9375 C 7.289062 -3.59375 7.390625 -3.164062 7.390625 -2.65625 C 7.390625 -2.15625 7.242188 -1.6875 6.953125 -1.25 C 6.660156 -0.8125 6.257812 -0.460938 5.75 -0.203125 C 5.25 0.0546875 4.675781 0.1875 4.03125 0.1875 C 3.3125 0.1875 2.664062 0.046875 2.09375 -0.234375 C 1.53125 -0.523438 1.101562 -0.910156 0.8125 -1.390625 C 0.738281 -1.515625 0.757812 -1.613281 0.875 -1.6875 L 1.1875 -1.96875 C 1.289062 -2.050781 1.390625 -2.039062 1.484375 -1.9375 C 1.796875 -1.625 2.148438 -1.332031 2.546875 -1.0625 C 2.953125 -0.800781 3.4375 -0.671875 4 -0.671875 C 4.5 -0.671875 4.929688 -0.765625 5.296875 -0.953125 C 5.671875 -1.148438 5.957031 -1.398438 6.15625 -1.703125 C 6.363281 -2.015625 6.46875 -2.359375 6.46875 -2.734375 C 6.46875 -3.117188 6.367188 -3.441406 6.171875 -3.703125 C 5.972656 -3.960938 5.710938 -4.1875 5.390625 -4.375 C 5.066406 -4.570312 4.707031 -4.742188 4.3125 -4.890625 C 3.925781 -5.046875 3.535156 -5.207031 3.140625 -5.375 C 2.753906 -5.539062 2.398438 -5.738281 2.078125 -5.96875 C 1.753906 -6.195312 1.492188 -6.476562 1.296875 -6.8125 C 1.097656 -7.144531 1 -7.550781 1 -8.03125 C 1 -8.519531 1.125 -8.957031 1.375 -9.34375 C 1.632812 -9.738281 1.988281 -10.050781 2.4375 -10.28125 C 2.894531 -10.507812 3.40625 -10.625 3.96875 -10.625 C 4.507812 -10.625 5.039062 -10.5 5.5625 -10.25 C 6.09375 -10 6.535156 -9.648438 6.890625 -9.203125 C 6.972656 -9.109375 6.960938 -9.003906 6.859375 -8.890625 L 6.59375 -8.671875 C 6.488281 -8.554688 6.382812 -8.550781 6.28125 -8.65625 C 5.957031 -9.007812 5.609375 -9.285156 5.234375 -9.484375 C 4.867188 -9.679688 4.441406 -9.78125 3.953125 -9.78125 C 3.390625 -9.78125 2.90625 -9.628906 2.5 -9.328125 C 2.09375 -9.023438 1.890625 -8.585938 1.890625 -8.015625 Z M 1.890625 -8.015625 "/></g></g></g><g fill="#1e2c36" fill-opacity="1"><g transform="translate(205.754234, 293.78207)"><g><path d="M 1.140625 -10.28125 C 1.140625 -10.425781 1.210938 -10.5 1.359375 -10.5 L 1.859375 -10.5 C 2.003906 -10.5 2.078125 -10.425781 2.078125 -10.28125 L 2.078125 -0.21875 C 2.078125 -0.0703125 2.003906 0 1.859375 0 L 1.359375 0 C 1.210938 0 1.140625 -0.0703125 1.140625 -0.21875 Z M 1.140625 -10.28125 "/></g></g></g><g fill="#1e2c36" fill-opacity="1"><g transform="translate(210.134231, 293.78207)"><g><path d="M 1.890625 -8.015625 C 1.890625 -7.628906 1.988281 -7.304688 2.1875 -7.046875 C 2.382812 -6.796875 2.644531 -6.582031 2.96875 -6.40625 C 3.300781 -6.226562 3.664062 -6.0625 4.0625 -5.90625 C 4.457031 -5.75 4.847656 -5.582031 5.234375 -5.40625 C 5.617188 -5.238281 5.972656 -5.035156 6.296875 -4.796875 C 6.628906 -4.566406 6.894531 -4.28125 7.09375 -3.9375 C 7.289062 -3.59375 7.390625 -3.164062 7.390625 -2.65625 C 7.390625 -2.15625 7.242188 -1.6875 6.953125 -1.25 C 6.660156 -0.8125 6.257812 -0.460938 5.75 -0.203125 C 5.25 0.0546875 4.675781 0.1875 4.03125 0.1875 C 3.3125 0.1875 2.664062 0.046875 2.09375 -0.234375 C 1.53125 -0.523438 1.101562 -0.910156 0.8125 -1.390625 C 0.738281 -1.515625 0.757812 -1.613281 0.875 -1.6875 L 1.1875 -1.96875 C 1.289062 -2.050781 1.390625 -2.039062 1.484375 -1.9375 C 1.796875 -1.625 2.148438 -1.332031 2.546875 -1.0625 C 2.953125 -0.800781 3.4375 -0.671875 4 -0.671875 C 4.5 -0.671875 4.929688 -0.765625 5.296875 -0.953125 C 5.671875 -1.148438 5.957031 -1.398438 6.15625 -1.703125 C 6.363281 -2.015625 6.46875 -2.359375 6.46875 -2.734375 C 6.46875 -3.117188 6.367188 -3.441406 6.171875 -3.703125 C 5.972656 -3.960938 5.710938 -4.1875 5.390625 -4.375 C 5.066406 -4.570312 4.707031 -4.742188 4.3125 -4.890625 C 3.925781 -5.046875 3.535156 -5.207031 3.140625 -5.375 C 2.753906 -5.539062 2.398438 -5.738281 2.078125 -5.96875 C 1.753906 -6.195312 1.492188 -6.476562 1.296875 -6.8125 C 1.097656 -7.144531 1 -7.550781 1 -8.03125 C 1 -8.519531 1.125 -8.957031 1.375 -9.34375 C 1.632812 -9.738281 1.988281 -10.050781 2.4375 -10.28125 C 2.894531 -10.507812 3.40625 -10.625 3.96875 -10.625 C 4.507812 -10.625 5.039062 -10.5 5.5625 -10.25 C 6.09375 -10 6.535156 -9.648438 6.890625 -9.203125 C 6.972656 -9.109375 6.960938 -9.003906 6.859375 -8.890625 L 6.59375 -8.671875 C 6.488281 -8.554688 6.382812 -8.550781 6.28125 -8.65625 C 5.957031 -9.007812 5.609375 -9.285156 5.234375 -9.484375 C 4.867188 -9.679688 4.441406 -9.78125 3.953125 -9.78125 C 3.390625 -9.78125 2.90625 -9.628906 2.5 -9.328125 C 2.09375 -9.023438 1.890625 -8.585938 1.890625 -8.015625 Z M 1.890625 -8.015625 "/></g></g></g><g fill="#1e2c36" fill-opacity="1"><g transform="translate(219.449218, 293.78207)"><g><path d="M 6.84375 -10.5 C 6.988281 -10.5 7.0625 -10.425781 7.0625 -10.28125 L 7.0625 -9.84375 C 7.0625 -9.6875 6.988281 -9.609375 6.84375 -9.609375 L 4.421875 -9.609375 L 4.421875 -0.21875 C 4.421875 -0.0703125 4.347656 0 4.203125 0 L 3.703125 0 C 3.554688 0 3.484375 -0.0703125 3.484375 -0.21875 L 3.484375 -9.609375 L 1.0625 -9.609375 C 0.914062 -9.609375 0.84375 -9.6875 0.84375 -9.84375 L 0.84375 -10.28125 C 0.84375 -10.425781 0.914062 -10.5 1.0625 -10.5 Z M 6.84375 -10.5 "/></g></g></g><g fill="#1e2c36" fill-opacity="1"><g transform="translate(228.509207, 293.78207)"><g><path d="M 6.453125 -0.890625 C 6.597656 -0.890625 6.671875 -0.8125 6.671875 -0.65625 L 6.671875 -0.21875 C 6.671875 -0.0703125 6.597656 0 6.453125 0 L 1.359375 0 C 1.210938 0 1.140625 -0.0703125 1.140625 -0.21875 L 1.140625 -10.28125 C 1.140625 -10.425781 1.210938 -10.5 1.359375 -10.5 L 6.4375 -10.5 C 6.582031 -10.5 6.65625 -10.425781 6.65625 -10.28125 L 6.65625 -9.84375 C 6.65625 -9.6875 6.582031 -9.609375 6.4375 -9.609375 L 2.078125 -9.609375 L 2.078125 -6.046875 L 6.1875 -6.046875 C 6.332031 -6.046875 6.40625 -5.96875 6.40625 -5.8125 L 6.40625 -5.390625 C 6.40625 -5.234375 6.332031 -5.15625 6.1875 -5.15625 L 2.078125 -5.15625 L 2.078125 -0.890625 Z M 6.453125 -0.890625 "/></g></g></g><g fill="#1e2c36" fill-opacity="1"><g transform="translate(237.314199, 293.78207)"><g><path d="M 11.40625 -10.5 C 11.507812 -10.46875 11.5625 -10.394531 11.5625 -10.28125 L 11.5625 -0.21875 C 11.5625 -0.0703125 11.488281 0 11.34375 0 L 10.84375 0 C 10.695312 0 10.625 -0.0703125 10.625 -0.21875 L 10.625 -8.8125 L 10.390625 -8.34375 L 6.890625 -0.171875 C 6.847656 -0.0546875 6.765625 0 6.640625 0 L 6.078125 0 C 5.941406 0 5.851562 -0.0546875 5.8125 -0.171875 L 2.3125 -8.34375 L 2.078125 -8.828125 L 2.078125 -0.21875 C 2.078125 -0.0703125 2.003906 0 1.859375 0 L 1.359375 0 C 1.210938 0 1.140625 -0.0703125 1.140625 -0.21875 L 1.140625 -10.28125 C 1.140625 -10.40625 1.195312 -10.476562 1.3125 -10.5 L 2.125 -10.5 C 2.269531 -10.5 2.363281 -10.445312 2.40625 -10.34375 L 6.359375 -1.03125 L 10.3125 -10.34375 C 10.351562 -10.445312 10.445312 -10.5 10.59375 -10.5 Z M 11.40625 -10.5 "/></g></g></g><g fill="#1e2c36" fill-opacity="1"><g transform="translate(251.174183, 293.78207)"><g><path d="M 9.140625 -0.25 C 9.203125 -0.0820312 9.140625 0 8.953125 0 L 8.46875 0 C 8.34375 0 8.257812 -0.0625 8.21875 -0.1875 L 7.3125 -2.65625 L 2.4375 -2.65625 L 1.546875 -0.1875 C 1.503906 -0.0625 1.421875 0 1.296875 0 L 0.8125 0 C 0.625 0 0.5625 -0.0820312 0.625 -0.25 L 4.328125 -10.3125 C 4.378906 -10.4375 4.472656 -10.5 4.609375 -10.5 L 5.15625 -10.5 C 5.300781 -10.5 5.394531 -10.4375 5.4375 -10.3125 Z M 2.71875 -3.421875 L 7.046875 -3.421875 L 4.890625 -9.40625 Z M 2.71875 -3.421875 "/></g></g></g><g fill="#1e2c36" fill-opacity="1"><g transform="translate(262.094169, 293.78207)"><g><path d="M 1.890625 -8.015625 C 1.890625 -7.628906 1.988281 -7.304688 2.1875 -7.046875 C 2.382812 -6.796875 2.644531 -6.582031 2.96875 -6.40625 C 3.300781 -6.226562 3.664062 -6.0625 4.0625 -5.90625 C 4.457031 -5.75 4.847656 -5.582031 5.234375 -5.40625 C 5.617188 -5.238281 5.972656 -5.035156 6.296875 -4.796875 C 6.628906 -4.566406 6.894531 -4.28125 7.09375 -3.9375 C 7.289062 -3.59375 7.390625 -3.164062 7.390625 -2.65625 C 7.390625 -2.15625 7.242188 -1.6875 6.953125 -1.25 C 6.660156 -0.8125 6.257812 -0.460938 5.75 -0.203125 C 5.25 0.0546875 4.675781 0.1875 4.03125 0.1875 C 3.3125 0.1875 2.664062 0.046875 2.09375 -0.234375 C 1.53125 -0.523438 1.101562 -0.910156 0.8125 -1.390625 C 0.738281 -1.515625 0.757812 -1.613281 0.875 -1.6875 L 1.1875 -1.96875 C 1.289062 -2.050781 1.390625 -2.039062 1.484375 -1.9375 C 1.796875 -1.625 2.148438 -1.332031 2.546875 -1.0625 C 2.953125 -0.800781 3.4375 -0.671875 4 -0.671875 C 4.5 -0.671875 4.929688 -0.765625 5.296875 -0.953125 C 5.671875 -1.148438 5.957031 -1.398438 6.15625 -1.703125 C 6.363281 -2.015625 6.46875 -2.359375 6.46875 -2.734375 C 6.46875 -3.117188 6.367188 -3.441406 6.171875 -3.703125 C 5.972656 -3.960938 5.710938 -4.1875 5.390625 -4.375 C 5.066406 -4.570312 4.707031 -4.742188 4.3125 -4.890625 C 3.925781 -5.046875 3.535156 -5.207031 3.140625 -5.375 C 2.753906 -5.539062 2.398438 -5.738281 2.078125 -5.96875 C 1.753906 -6.195312 1.492188 -6.476562 1.296875 -6.8125 C 1.097656 -7.144531 1 -7.550781 1 -8.03125 C 1 -8.519531 1.125 -8.957031 1.375 -9.34375 C 1.632812 -9.738281 1.988281 -10.050781 2.4375 -10.28125 C 2.894531 -10.507812 3.40625 -10.625 3.96875 -10.625 C 4.507812 -10.625 5.039062 -10.5 5.5625 -10.25 C 6.09375 -10 6.535156 -9.648438 6.890625 -9.203125 C 6.972656 -9.109375 6.960938 -9.003906 6.859375 -8.890625 L 6.59375 -8.671875 C 6.488281 -8.554688 6.382812 -8.550781 6.28125 -8.65625 C 5.957031 -9.007812 5.609375 -9.285156 5.234375 -9.484375 C 4.867188 -9.679688 4.441406 -9.78125 3.953125 -9.78125 C 3.390625 -9.78125 2.90625 -9.628906 2.5 -9.328125 C 2.09375 -9.023438 1.890625 -8.585938 1.890625 -8.015625 Z M 1.890625 -8.015625 "/></g></g></g><g fill="#1e2c36" fill-opacity="1"><g transform="translate(271.409156, 293.78207)"><g/></g></g><g fill="#1e2c36" fill-opacity="1"><g transform="translate(276.764144, 293.78207)"><g><path d="M 15.5625 -10.5 C 15.738281 -10.5 15.800781 -10.414062 15.75 -10.25 L 12.46875 -0.1875 C 12.425781 -0.0625 12.332031 0 12.1875 0 L 11.609375 0 C 11.460938 0 11.375 -0.0625 11.34375 -0.1875 L 8.25 -9.078125 L 5.171875 -0.1875 C 5.128906 -0.0625 5.039062 0 4.90625 0 L 4.3125 0 C 4.164062 0 4.078125 -0.0625 4.046875 -0.1875 L 0.78125 -10.25 C 0.707031 -10.414062 0.765625 -10.5 0.953125 -10.5 L 1.4375 -10.5 C 1.570312 -10.5 1.65625 -10.4375 1.6875 -10.3125 L 4.609375 -1.09375 L 7.78125 -10.3125 C 7.789062 -10.332031 7.800781 -10.351562 7.8125 -10.375 C 7.820312 -10.394531 7.832031 -10.410156 7.84375 -10.421875 C 7.875 -10.472656 7.9375 -10.5 8.03125 -10.5 L 8.46875 -10.5 C 8.519531 -10.5 8.566406 -10.488281 8.609375 -10.46875 C 8.648438 -10.4375 8.6875 -10.382812 8.71875 -10.3125 L 11.90625 -1.09375 L 14.84375 -10.3125 C 14.875 -10.4375 14.960938 -10.5 15.109375 -10.5 Z M 15.5625 -10.5 "/></g></g></g><g fill="#1e2c36" fill-opacity="1"><g transform="translate(294.464125, 293.78207)"><g><path d="M 6.453125 -0.890625 C 6.597656 -0.890625 6.671875 -0.8125 6.671875 -0.65625 L 6.671875 -0.21875 C 6.671875 -0.0703125 6.597656 0 6.453125 0 L 1.359375 0 C 1.210938 0 1.140625 -0.0703125 1.140625 -0.21875 L 1.140625 -10.28125 C 1.140625 -10.425781 1.210938 -10.5 1.359375 -10.5 L 6.4375 -10.5 C 6.582031 -10.5 6.65625 -10.425781 6.65625 -10.28125 L 6.65625 -9.84375 C 6.65625 -9.6875 6.582031 -9.609375 6.4375 -9.609375 L 2.078125 -9.609375 L 2.078125 -6.046875 L 6.1875 -6.046875 C 6.332031 -6.046875 6.40625 -5.96875 6.40625 -5.8125 L 6.40625 -5.390625 C 6.40625 -5.234375 6.332031 -5.15625 6.1875 -5.15625 L 2.078125 -5.15625 L 2.078125 -0.890625 Z M 6.453125 -0.890625 "/></g></g></g><g fill="#1e2c36" fill-opacity="1"><g transform="translate(303.269117, 293.78207)"><g><path d="M 5.90625 -5.703125 C 6.632812 -5.535156 7.1875 -5.207031 7.5625 -4.71875 C 7.9375 -4.238281 8.125 -3.691406 8.125 -3.078125 C 8.125 -2.097656 7.816406 -1.335938 7.203125 -0.796875 C 6.585938 -0.265625 5.660156 0 4.421875 0 L 1.359375 0 C 1.210938 0 1.140625 -0.0703125 1.140625 -0.21875 L 1.140625 -10.28125 C 1.140625 -10.425781 1.210938 -10.5 1.359375 -10.5 L 4.46875 -10.5 C 5.226562 -10.5 5.828125 -10.375 6.265625 -10.125 C 6.710938 -9.875 7.03125 -9.5625 7.21875 -9.1875 C 7.40625 -8.8125 7.5 -8.429688 7.5 -8.046875 C 7.5 -7.515625 7.375 -7.035156 7.125 -6.609375 C 6.875 -6.191406 6.46875 -5.890625 5.90625 -5.703125 Z M 6.5625 -8.015625 C 6.5625 -8.554688 6.367188 -8.957031 5.984375 -9.21875 C 5.597656 -9.476562 5.0625 -9.609375 4.375 -9.609375 L 2.078125 -9.609375 L 2.078125 -6.0625 L 4.375 -6.0625 C 5.0625 -6.0625 5.597656 -6.226562 5.984375 -6.5625 C 6.367188 -6.90625 6.5625 -7.390625 6.5625 -8.015625 Z M 4.359375 -0.890625 C 5.285156 -0.890625 5.984375 -1.054688 6.453125 -1.390625 C 6.921875 -1.734375 7.15625 -2.289062 7.15625 -3.0625 C 7.15625 -3.6875 6.941406 -4.203125 6.515625 -4.609375 C 6.097656 -5.015625 5.378906 -5.21875 4.359375 -5.21875 L 2.078125 -5.21875 L 2.078125 -0.890625 Z M 4.359375 -0.890625 "/></g></g></g></svg>